<svg width="30" height="30" viewBox="0 0 30 30" fill="none" xmlns="http://www.w3.org/2000/svg">
<path d="M15 7.5C14.0729 7.5 13.1666 7.77492 12.3958 8.28999C11.6249 8.80506 11.0241 9.53714 10.6693 10.3937C10.3145 11.2502 10.2217 12.1927 10.4026 13.102C10.5834 14.0113 11.0299 14.8465 11.6854 15.5021C12.341 16.1576 13.1762 16.6041 14.0855 16.7849C14.9948 16.9658 15.9373 16.873 16.7938 16.5182C17.6504 16.1634 18.3824 15.5626 18.8975 14.7917C19.4126 14.0209 19.6875 13.1146 19.6875 12.1875C19.6875 10.9443 19.1936 9.75201 18.3146 8.87294C17.4355 7.99386 16.2432 7.5 15 7.5ZM15 15C14.4437 15 13.9 14.835 13.4375 14.526C12.9749 14.217 12.6145 13.7777 12.4016 13.2638C12.1887 12.7499 12.133 12.1844 12.2415 11.6388C12.3501 11.0932 12.6179 10.5921 13.0113 10.1988C13.4046 9.80543 13.9057 9.53756 14.4513 9.42904C14.9969 9.32052 15.5624 9.37622 16.0763 9.58909C16.5902 9.80196 17.0295 10.1624 17.3385 10.625C17.6476 11.0875 17.8125 11.6312 17.8125 12.1875C17.8125 12.9334 17.5162 13.6488 16.9887 14.1762C16.4613 14.7037 15.7459 15 15 15ZM15 1.875C12.2659 1.8781 9.64468 2.96559 7.71139 4.89889C5.77809 6.83218 4.6906 9.45341 4.6875 12.1875C4.6875 15.8672 6.38789 19.7672 9.60938 23.4668C11.0569 25.1386 12.6861 26.6439 14.4668 27.9551C14.6244 28.0655 14.8122 28.1247 15.0047 28.1247C15.1971 28.1247 15.3849 28.0655 15.5426 27.9551C17.32 26.6434 18.946 25.138 20.3906 23.4668C23.6074 19.7672 25.3125 15.8672 25.3125 12.1875C25.3094 9.45341 24.2219 6.83218 22.2886 4.89889C20.3553 2.96559 17.7341 1.8781 15 1.875ZM15 26.0156C13.0629 24.4922 6.5625 18.8965 6.5625 12.1875C6.5625 9.94974 7.45145 7.80362 9.03379 6.22129C10.6161 4.63895 12.7622 3.75 15 3.75C17.2378 3.75 19.3839 4.63895 20.9662 6.22129C22.5486 7.80362 23.4375 9.94974 23.4375 12.1875C23.4375 18.8941 16.9371 24.4922 15 26.0156Z" fill="#022D40"/>
</svg>
