<svg width="89" height="88" viewBox="0 0 89 88" fill="none" xmlns="http://www.w3.org/2000/svg">
<path fill-rule="evenodd" clip-rule="evenodd" d="M88.17 43.77C88.17 67.9435 68.5735 87.54 44.4 87.54C20.2265 87.54 0.630005 67.9435 0.630005 43.77C0.630005 19.5964 20.2265 0 44.4 0C68.5735 0 88.17 19.5964 88.17 43.77ZM25.3539 8.52869L26.3419 8.20386L39.5568 48.3972L38.5688 48.722L25.3539 8.52869ZM64.83 35.8099L64.7 34.7799L83.85 32.38L83.97 33.4099L64.83 35.8099ZM19.2487 76.8458L52.3382 51.3542L52.9729 52.1781L19.8834 77.6697L19.2487 76.8458ZM57.9655 45.2312L46.9814 85.5208L47.9847 85.7943L58.9689 45.5048L57.9655 45.2312ZM43.3421 53.2434L46.3004 35.8634L47.3257 36.038L44.3673 53.418L43.3421 53.2434ZM60.0712 7.2561L53.6548 19.8004L54.5807 20.274L60.9971 7.72974L60.0712 7.2561ZM52.4426 37.1235L53.0754 36.2982L67.0422 47.0076L66.4093 47.8329L52.4426 37.1235ZM72.7715 51.3939L72.1389 52.2194L82.3787 60.0653L83.0112 59.2397L72.7715 51.3939ZM69.8954 76.4825L70.688 68.2808L71.7232 68.3807L70.9305 76.5826L69.8954 76.4825ZM71.9354 55.3062L71.0237 64.722L72.0589 64.8223L72.9705 55.4064L71.9354 55.3062ZM66.0765 64.181L66.5867 63.2748L77.2351 69.2699L76.7248 70.1761L66.0765 64.181ZM57.0886 57.9078L56.5766 58.8131L63.1833 62.5494L63.6952 61.6443L57.0886 57.9078ZM58.0549 74.6942L58.9099 74.1022L63.652 80.9507L62.797 81.5427L58.0549 74.6942ZM54.7177 68.0336L53.8627 68.6259L55.5539 71.0673L56.4089 70.4751L54.7177 68.0336ZM53.8703 76.187L68.7327 57.2664L69.5505 57.9088L54.6881 76.8295L53.8703 76.187ZM37.53 73.2297L29.3063 82.6302L30.089 83.3149L38.3128 73.9144L37.53 73.2297ZM42.2176 67.5822L48.0847 60.7706L48.8727 61.4495L43.0056 68.261L42.2176 67.5822ZM18.1313 60.8203L12.3629 70.4207L13.2543 70.9563L19.0227 61.356L18.1313 60.8203ZM5.05289 56.3264L5.12126 55.2886L10.9386 55.672L10.8703 56.7097L5.05289 56.3264ZM20.9772 56.0789L20.9258 57.1176L28.996 57.5166L29.0473 56.4778L20.9772 56.0789ZM32.62 57.7001L32.6697 56.6613L41.6295 57.0901L41.5797 58.1289L32.62 57.7001ZM8.43546 42.476L3.31531 47.3076L4.02908 48.064L9.14925 43.2323L8.43546 42.476ZM11.0643 40.0167L18.4632 33.0101L19.1783 33.7653L11.7794 40.7719L11.0643 40.0167ZM4.14188 38.6501L3.75043 39.6136L32.2577 51.1951L32.6491 50.2316L4.14188 38.6501ZM23.1191 70.0654L34.5295 49.3271L35.4407 49.8285L24.0303 70.5667L23.1191 70.0654ZM12.4352 19.5227L11.6642 20.2208L26.9744 37.1293L27.7453 36.4312L12.4352 19.5227ZM29.2995 39.6761L30.0688 38.9763L34.086 43.3927L33.3166 44.0924L29.2995 39.6761ZM14.889 45.5134L13.7331 57.1561L14.768 57.2589L15.924 45.6161L14.889 45.5134ZM39.5231 25.2917L40.395 24.7249L44.4449 30.9541L43.573 31.521L39.5231 25.2917ZM19.1092 12.8329L18.1688 13.2772L24.6665 27.0294L25.6069 26.5851L19.1092 12.8329ZM35.3141 28.535L37.0933 19.0098L38.1156 19.2007L36.3364 28.726L35.3141 28.535ZM30.6818 33.1112L24.675 43.9478L25.5847 44.452L31.5915 33.6155L30.6818 33.1112ZM33.0977 5.69568L33.8681 4.99707L59.0845 32.8069L58.314 33.5055L33.0977 5.69568ZM49.8375 3.86768L41.502 11.7612L42.2171 12.5164L50.5526 4.6228L49.8375 3.86768ZM48.7043 20.1986L50.937 8.73401L51.9578 8.93286L49.7252 20.3975L48.7043 20.1986ZM47.9866 24.2413L46.9692 29.5344L47.9905 29.7307L49.0079 24.4376L47.9866 24.2413ZM54.0711 25.6185L69.1248 11.9399L69.8242 12.7096L54.7705 26.3882L54.0711 25.6185ZM51.6152 27.8005L39.7219 38.6226L40.4218 39.3918L52.3151 28.5698L51.6152 27.8005ZM71.3148 23.6252L75.8796 18.5715L76.6514 19.2687L72.0866 24.3223L71.3148 23.6252ZM67.7059 27.6674L57.8871 38.5265L58.6585 39.224L68.4773 28.3649L67.7059 27.6674ZM48.0778 49.501L55.6479 40.9506L56.4266 41.64L48.8565 50.1904L48.0778 49.501ZM73.164 36.5542L72.3938 37.2531L84.7045 50.8203L85.4747 50.1215L73.164 36.5542ZM79.8327 42.0559L79.8958 41.0178L85.3857 41.3517L85.3225 42.3898L79.8327 42.0559ZM68.4293 40.6602L68.3595 41.6978L73.9269 42.0724L73.9967 41.0348L68.4293 40.6602ZM64.5252 20.9756L71.7474 17.3748L72.2114 18.3054L64.9893 21.9062L64.5252 20.9756ZM39.9145 66.6177L38.8896 66.7941L42.0919 85.4106L43.1168 85.2344L39.9145 66.6177ZM7.80328 63.0822L25.7399 50.6392L26.3326 51.4937L8.39609 63.9366L7.80328 63.0822ZM41.1443 3.67334L38.2779 8.46082L39.1702 8.99512L42.0366 4.20752L41.1443 3.67334ZM31.2836 19.7839L36.5917 11.4037L37.4703 11.9601L32.1622 20.3405L31.2836 19.7839ZM18.5654 28.9957L6.33331 29.4358L6.3707 30.4751L18.6028 30.0352L18.5654 28.9957ZM23.5454 28.8478L29.691 28.6149L29.7304 29.6542L23.5848 29.8871L23.5454 28.8478ZM79.8154 48.0341L61.4753 50.5365L61.6159 51.567L79.956 49.0645L79.8154 48.0341ZM59.0615 25.8608L80.9601 25.6086L80.972 26.6486L59.0735 26.9008L59.0615 25.8608Z" fill="white"/>
</svg>
