<svg width="154" height="89" viewBox="0 0 154 89" fill="none" xmlns="http://www.w3.org/2000/svg">
<path d="M8.87682 46.4421H5.04351V53.3217H0V30.3875H9.37163C14.8444 30.3875 18.1531 33.6306 18.1531 38.3164V38.382C18.1531 43.6878 14.0276 46.4421 8.88278 46.4421H8.87682ZM13.038 38.4178C13.038 36.1583 11.4642 34.9481 8.9424 34.9481H5.04351V41.9589H9.04374C11.5655 41.9589 13.038 40.4507 13.038 38.4833V38.4178Z" fill="#022D40"/>
<path d="M35.8054 53.3217L33.7069 48.1769H24.0074L21.9089 53.3217H16.764L26.6007 30.2206H31.2507L41.0814 53.3158H35.8054V53.3217ZM28.8601 36.2835L25.8137 43.7176H31.9065L28.8601 36.2835Z" fill="#022D40"/>
<path d="M51.2042 35.0375V53.3158H46.1607V35.0375H39.1796V30.3875H58.1792V35.0375H51.1982H51.2042Z" fill="#022D40"/>
<path d="M75.3129 53.3217L73.2144 48.1769H63.5149L61.4164 53.3217H56.2715L66.1082 30.2206H70.7582L80.5889 53.3158H75.3129V53.3217ZM68.3676 36.2835L65.3212 43.7176H71.414L68.3676 36.2835Z" fill="#022D40"/>
<path d="M92.8399 53.7152C85.6979 53.7152 80.7856 48.7015 80.7856 41.9232V41.8576C80.7856 35.3356 85.8649 30 92.8101 30C96.9355 30 99.4275 31.1148 101.818 33.1417L98.6406 36.975C96.87 35.5025 95.2961 34.65 92.6432 34.65C88.9709 34.65 86.0556 37.8931 86.0556 41.792V41.8576C86.0556 46.0546 88.9411 49.1307 93.0009 49.1307C94.8371 49.1307 96.4765 48.6717 97.7523 47.7536V44.4747H92.673V40.1168H102.635V50.0786C100.274 52.0758 97.0309 53.7152 92.8399 53.7152Z" fill="#022D40"/>
<path d="M117.771 53.7152C110.695 53.7152 105.616 48.4392 105.616 41.9232V41.8576C105.616 35.3356 110.761 30 117.837 30C124.913 30 129.993 35.276 129.993 41.792V41.8576C129.993 48.3796 124.848 53.7152 117.771 53.7152ZM124.717 41.8576C124.717 37.9289 121.831 34.65 117.771 34.65C113.712 34.65 110.892 37.8574 110.892 41.792V41.8576C110.892 45.7863 113.777 49.0652 117.837 49.0652C121.897 49.0652 124.717 45.8519 124.717 41.9232V41.8576Z" fill="#022D40"/>
<path d="M149.714 53.3217L138.607 38.7456V53.3217H133.629V30.3875H138.279L149.022 44.5105V30.3875H154V53.3217H149.708H149.714Z" fill="#022D40"/>
<path d="M44.3304 73.5018H41.6656C41.2542 73.5018 41.135 73.2157 41.135 72.8878V72.4347C41.135 72.1485 41.3377 71.9041 41.6656 71.9041H44.3245V66.4552C44.3245 61.6203 47.5199 59.2059 51.0372 59.2059C54.0657 59.2059 56.3192 60.7619 57.0167 61.4177C57.1777 61.5428 57.1777 61.829 57.0584 62.0317L56.6113 62.6875C56.4504 62.9319 56.2 62.8902 55.9555 62.7292C55.2163 62.2344 53.5411 60.8453 51.0432 60.8453C48.5453 60.8453 46.0891 62.6875 46.0891 66.4552V71.9041H57.6784C57.9646 71.9041 58.209 72.1485 58.209 72.4347V87.75C58.209 88.0779 57.9229 88.2806 57.6367 88.2806H56.9392C56.653 88.2806 56.4086 88.0362 56.4086 87.75V73.5018H46.0891V87.75C46.0891 88.0362 45.8447 88.2806 45.5585 88.2806H44.861C44.5749 88.2806 44.3304 88.0362 44.3304 87.75V73.5018Z" fill="#022D40"/>
<path d="M64.433 60.1538C64.433 59.8677 64.6774 59.6233 64.9635 59.6233H65.6611C65.9472 59.6233 66.1916 59.8677 66.1916 60.1538V73.1322C66.1916 73.1322 68.159 71.4928 71.2709 71.4928C75.8971 71.4928 79.2952 75.2188 79.2952 80.0537C79.2952 84.8885 75.9806 88.692 71.7598 88.692C68.6061 88.692 66.5613 86.8499 66.0664 86.2776L65.9412 87.7501C65.8995 88.1197 65.6968 88.2807 65.3689 88.2807H64.9576C64.6714 88.2807 64.427 88.0362 64.427 87.7501V60.1538H64.433ZM71.5988 87.0585C75.0386 87.0585 77.5366 83.9048 77.5366 80.0954C77.5366 76.2859 74.836 73.2574 71.0682 73.2574C68.1172 73.2574 66.2334 74.9803 66.2334 74.9803V84.1493C66.3168 84.3162 68.0755 87.0585 71.5988 87.0585Z" fill="#022D40"/>
<path d="M91.2184 71.4987C95.5167 71.4987 98.6287 74.6524 98.6287 78.9924C98.6287 79.6482 98.6287 80.5902 98.0146 80.5902H84.9528C85.1197 84.1135 87.6534 87.0585 91.3376 87.0585C93.5077 87.0585 95.1888 86.2 96.1725 85.5442C96.5421 85.2998 96.7031 85.2581 96.9117 85.5442L97.3231 86.1166C97.4483 86.2835 97.4065 86.5279 97.1621 86.7723C96.3454 87.5891 93.764 88.6979 91.2244 88.6979C86.2285 88.6979 83.1583 84.8527 83.1583 80.0596C83.1583 75.2664 86.2285 71.4987 91.2244 71.4987H91.2184ZM96.8283 79.1117C96.8283 75.9163 94.9027 73.1322 91.2184 73.1322C87.5341 73.1322 85.1972 75.7553 84.9945 79.1117H96.8283Z" fill="#022D40"/>
<path d="M103.458 72.4406C103.458 72.1545 103.702 71.9101 103.988 71.9101H104.477C104.721 71.9101 104.93 72.077 104.972 72.3631L105.133 74.0443C105.544 73.472 107.178 71.5047 110.254 71.5047C111.565 71.5047 112.465 71.8743 112.793 71.9935C113.163 72.1187 113.366 72.4049 113.246 72.7328L112.919 73.5495C112.793 73.8357 112.549 73.8774 112.263 73.7522C112.06 73.6687 111.237 73.2574 110.135 73.2574C106.939 73.2574 105.383 75.8388 105.264 76.0832V87.756C105.264 88.0839 105.103 88.2866 104.733 88.2866H103.917C103.63 88.2866 103.463 88.0421 103.463 87.756V72.4406H103.458Z" fill="#022D40"/>
<path d="M72.6048 14.204V13.52H73.5408C73.7808 13.52 73.9728 13.448 74.1168 13.304C74.2608 13.16 74.4468 12.854 74.6748 12.386L75.5748 10.424L72.7128 3.69196H73.5768L76.0068 9.52396L78.5808 3.69196H79.4628L75.3948 12.53C75.1788 13.01 74.9868 13.37 74.8188 13.61C74.6508 13.85 74.4708 14.006 74.2788 14.078C74.0868 14.162 73.8528 14.204 73.5768 14.204H72.6048Z" fill="#022D40"/>
<path d="M68.81 11.18C68.33 11.18 67.916 11.096 67.568 10.928C67.232 10.76 66.956 10.556 66.74 10.316C66.524 10.076 66.356 9.85397 66.236 9.64997C66.128 9.44597 66.062 9.30197 66.038 9.21797H66.002L65.858 11H65.156V0.865967H66.002L66.02 5.67197H66.056C66.08 5.58797 66.14 5.44397 66.236 5.23997C66.344 5.02397 66.5 4.80197 66.704 4.57397C66.92 4.33397 67.196 4.12997 67.532 3.96197C67.88 3.78197 68.306 3.69197 68.81 3.69197C69.506 3.69197 70.094 3.85997 70.574 4.19597C71.066 4.53197 71.438 4.98197 71.69 5.54597C71.954 6.10997 72.086 6.73997 72.086 7.43597C72.086 8.14397 71.954 8.77997 71.69 9.34397C71.438 9.90797 71.066 10.358 70.574 10.694C70.094 11.018 69.506 11.18 68.81 11.18ZM68.702 10.406C69.302 10.406 69.788 10.268 70.16 9.99197C70.544 9.70397 70.82 9.33197 70.988 8.87597C71.168 8.41997 71.258 7.93997 71.258 7.43597C71.258 6.93197 71.162 6.45797 70.97 6.01397C70.778 5.55797 70.484 5.19197 70.088 4.91597C69.692 4.62797 69.194 4.48397 68.594 4.48397C67.862 4.48397 67.25 4.74797 66.758 5.27597C66.278 5.79197 66.038 6.51197 66.038 7.43597C66.038 8.38397 66.296 9.11597 66.812 9.63197C67.34 10.148 67.97 10.406 68.702 10.406Z" fill="#022D40"/>
</svg>
