<svg width="50" height="49" viewBox="0 0 50 49" fill="none" xmlns="http://www.w3.org/2000/svg">
<path fill-rule="evenodd" clip-rule="evenodd" d="M24.5942 47.3038C37.1909 47.3038 47.4026 37.0942 47.4026 24.5C47.4026 11.9058 37.1909 1.69615 24.5942 1.69615C11.9976 1.69615 1.78594 11.9058 1.78594 24.5C1.78594 37.0942 11.9976 47.3038 24.5942 47.3038ZM24.5942 49C31.6815 49 38.0661 45.9919 42.5403 41.183C42.9489 40.7437 43.3416 40.2895 43.7175 39.8212C45.2858 37.8669 46.5607 35.6672 47.4752 33.2887C47.715 32.6651 47.93 32.0293 48.119 31.3823C48.7569 29.199 49.099 26.8894 49.099 24.5C49.099 22.1106 48.7569 19.801 48.119 17.6177C47.93 16.9707 47.715 16.3349 47.4752 15.7113C46.5607 13.3328 45.2858 11.1331 43.7175 9.17883C43.3416 8.71049 42.9489 8.25626 42.5403 7.81704C38.0661 3.00814 31.6815 0 24.5942 0C17.4394 0 11.0007 3.0658 6.5207 7.95516C6.11547 8.39742 5.72627 8.85459 5.35401 9.32577C3.80111 11.2913 2.54309 13.5005 1.6467 15.8866C1.41177 16.5119 1.20168 17.1494 1.01764 17.7978C0.413048 19.9279 0.089457 22.1762 0.089457 24.5C0.089457 26.8238 0.413048 29.0721 1.01764 31.2022C1.20168 31.8506 1.41177 32.4881 1.6467 33.1134C2.54309 35.4995 3.80111 37.7087 5.35401 39.6742C5.72627 40.1454 6.11547 40.6026 6.5207 41.0448C11.0007 45.9342 17.4394 49 24.5942 49Z" fill="#022D40"/>
<path fill-rule="evenodd" clip-rule="evenodd" d="M6.5207 7.95516C6.11547 8.39742 5.72627 8.85459 5.35401 9.32577C7.91004 14.528 12.538 18.5352 18.1662 20.2793C15.1554 20.9357 12.3166 22.0505 9.72713 23.5464C6.54461 21.559 3.79376 18.9486 1.6467 15.8866C1.41177 16.5119 1.20168 17.1494 1.01764 17.7978C3.01375 20.4097 5.43857 22.6785 8.18751 24.5C5.43857 26.3215 3.01375 28.5903 1.01764 31.2022C1.20168 31.8506 1.41177 32.4881 1.6467 33.1134C3.79376 30.0514 6.54461 27.441 9.72713 25.4536C12.3166 26.9495 15.1554 28.0643 18.1662 28.7207C12.538 30.4648 7.91004 34.4719 5.35401 39.6742C5.72627 40.1454 6.11547 40.6026 6.5207 41.0448C9.58159 34.1841 16.4802 29.4 24.5 29.4C32.5735 29.4 39.5108 34.2484 42.5403 41.183C42.9489 40.7437 43.3416 40.2895 43.7175 39.8212C43.8041 40.0009 43.8882 40.182 43.9698 40.3645C41.4934 34.8273 36.7085 30.5412 30.8338 28.7207C33.8446 28.0643 36.6834 26.9495 39.2729 25.4536C42.5159 27.4788 45.3107 30.151 47.4752 33.2887C47.715 32.6651 47.93 32.0293 48.119 31.3823C46.0973 28.6946 43.6245 26.3633 40.8125 24.5C43.6245 22.6367 46.0973 20.3054 48.119 17.6177C47.93 16.9707 47.715 16.3349 47.4752 15.7113C45.3107 18.849 42.516 21.5212 39.2729 23.5464C36.6834 22.0505 33.8446 20.9357 30.8338 20.2793C36.5149 18.5188 41.1768 14.4526 43.7175 9.17883C43.3416 8.71049 42.9489 8.25626 42.5403 7.81704C39.5118 14.7492 32.5785 19.5965 24.5087 19.6L24.5 19.6L24.4913 19.6C16.4752 19.5965 9.58048 14.8135 6.5207 7.95516ZM37.6228 24.5C33.7124 26.5847 29.2447 27.7667 24.5 27.7667C19.7553 27.7667 15.2876 26.5847 11.3772 24.5C15.2852 22.4166 19.7498 21.2348 24.4912 21.2333L24.5 21.2333C29.2447 21.2333 33.7124 22.4153 37.6228 24.5Z" fill="#022D40"/>
</svg>
