<svg width="47" height="39" viewBox="0 0 47 39" fill="none" xmlns="http://www.w3.org/2000/svg">
<path fill-rule="evenodd" clip-rule="evenodd" d="M10.5053 19.5C4.51262 15.5325 0.453536 8.89905 0.0356526 1.3C0.0119876 0.869662 0 0.436226 0 1.85966e-06H7.83333C7.83333 8.61335 14.8438 15.5963 23.4931 15.6C23.4954 15.6 23.4977 15.6 23.5 15.6C23.5023 15.6 23.5046 15.6 23.5069 15.6C32.1562 15.5963 39.1667 8.61335 39.1667 0H47C47 0.436224 46.988 0.86966 46.9643 1.3C46.5465 8.89905 42.4874 15.5325 36.4947 19.5C42.4874 23.4675 46.5465 30.101 46.9643 37.7C46.988 38.1303 47 38.5638 47 39L39.1667 39C39.1667 30.3844 32.1525 23.4 23.5 23.4C14.8475 23.4 7.83333 30.3844 7.83333 39H0C0 38.5638 0.0119876 38.1303 0.0356526 37.7C0.453536 30.101 4.51262 23.4675 10.5053 19.5ZM11.7318 18.741C5.81551 15.0497 1.77194 8.65778 1.34332 1.3H6.57724C7.11279 8.31009 11.9433 14.1247 18.4544 16.1407C16.056 16.6631 13.7946 17.5504 11.7318 18.741ZM18.4544 22.8594C11.9433 24.8753 7.11279 30.6899 6.57724 37.7H1.34332C1.77194 30.3422 5.81551 23.9503 11.7318 20.259C13.7946 21.4496 16.056 22.3369 18.4544 22.8594ZM28.5456 22.8594C35.0567 24.8753 39.8872 30.6899 40.4228 37.7L45.6567 37.7C45.2281 30.3422 41.1845 23.9503 35.2682 20.259C33.2054 21.4496 30.944 22.3369 28.5456 22.8594ZM33.9537 19.5C30.8387 21.1592 27.2797 22.1 23.5 22.1C19.7203 22.1 16.1613 21.1592 13.0463 19.5C16.1594 17.8418 19.7159 16.9012 23.493 16.9C23.4953 16.9 23.4977 16.9 23.5 16.9C27.2797 16.9 30.8387 17.8408 33.9537 19.5ZM35.2682 18.741C41.1845 15.0497 45.2281 8.65777 45.6567 1.3H40.4228C39.8872 8.31009 35.0567 14.1247 28.5456 16.1407C30.944 16.6631 33.2054 17.5504 35.2682 18.741Z" fill="#022D40"/>
</svg>
