<svg width="199" height="51" viewBox="0 0 199 51" fill="none" xmlns="http://www.w3.org/2000/svg">
<path d="M0 2.13074H12.4621C22.5078 2.13074 29.4464 9.02376 29.4464 18.0186V18.1097C29.4464 27.1045 22.5078 34.0886 12.4621 34.0886H0V2.13074ZM12.4621 27.7417C18.2132 27.7417 22.0941 23.8607 22.0941 18.2007V18.1097C22.0941 12.4496 18.2132 8.47762 12.4621 8.47762H7.02957V27.7417H12.4621Z" fill="white"/>
<path d="M41.7264 21.49L29.4464 2.13074H37.6634L45.2888 14.961L53.0507 2.13074H61.0401L48.7601 21.3493V34.0886H41.7306V21.49H41.7264Z" fill="white"/>
<path d="M65.4217 2.13074H89.5266V8.3866H72.4057V14.87H87.4703V21.1259H72.4057V27.8369H89.7542V34.0927H65.4217V2.13074Z" fill="white"/>
<path d="M94.595 18.2007V18.1097C94.595 9.02377 101.67 1.58459 111.352 1.58459C117.103 1.58459 120.574 3.13615 123.905 5.96618L119.478 11.3077C117.012 9.25133 114.823 8.06801 111.124 8.06801C106.01 8.06801 101.947 12.5861 101.947 18.0186V18.1097C101.947 23.9518 105.965 28.2465 111.625 28.2465C114.182 28.2465 116.466 27.6093 118.245 26.3308V21.7672H111.17V15.6934H125.047V29.5705C121.762 32.355 117.239 34.6389 111.397 34.6389C101.447 34.6389 94.595 27.6548 94.595 18.2048V18.2007Z" fill="white"/>
<path d="M170.605 2.13074H177.088L192.061 21.8086V2.13074H199V34.0886H193.021L177.543 13.7736V34.0886H170.605V2.13074Z" fill="white"/>
<path fill-rule="evenodd" clip-rule="evenodd" d="M166.397 18.1097C166.397 28.1114 158.289 36.2194 148.287 36.2194C138.285 36.2194 130.177 28.1114 130.177 18.1097C130.177 8.108 138.285 0 148.287 0C158.289 0 166.397 8.108 166.397 18.1097ZM140.407 3.52863L140.816 3.39424L146.283 20.0241L145.874 20.1585L140.407 3.52863ZM156.74 14.8162L156.686 14.39L164.609 13.397L164.659 13.8232L156.74 14.8162ZM137.881 31.7947L151.571 21.2476L151.834 21.5885L138.143 32.1355L137.881 31.7947ZM153.9 18.7142L149.355 35.3839L149.77 35.4971L154.315 18.8274L153.9 18.7142ZM147.849 22.0292L149.073 14.8382L149.497 14.9104L148.273 22.1014L147.849 22.0292ZM154.771 3.0022L152.116 8.19234L152.499 8.3883L155.154 3.19815L154.771 3.0022ZM151.615 15.3598L151.876 15.0183L157.655 19.4493L157.393 19.7907L151.615 15.3598ZM160.026 21.2639L159.764 21.6055L164.001 24.8517L164.262 24.5102L160.026 21.2639ZM158.836 31.6443L159.164 28.2509L159.592 28.2922L159.264 31.6857L158.836 31.6443ZM159.68 22.8826L159.303 26.7784L159.731 26.8199L160.108 22.9241L159.68 22.8826ZM157.256 26.5546L157.467 26.1797L161.872 28.6601L161.661 29.0351L157.256 26.5546ZM153.537 23.9592L153.325 24.3337L156.059 25.8796L156.27 25.5051L153.537 23.9592ZM153.937 30.9044L154.29 30.6595L156.252 33.493L155.899 33.7379L153.937 30.9044ZM152.556 28.1486L152.202 28.3937L152.902 29.4038L153.256 29.1588L152.556 28.1486ZM152.205 31.522L158.355 23.6937L158.693 23.9595L152.544 31.7879L152.205 31.522ZM145.445 30.2985L142.042 34.1879L142.366 34.4713L145.768 30.5818L145.445 30.2985ZM147.384 27.9618L149.812 25.1435L150.138 25.4244L147.71 28.2426L147.384 27.9618ZM137.418 25.1642L135.032 29.1363L135.401 29.3579L137.787 25.3858L137.418 25.1642ZM132.007 23.3048L132.036 22.8754L134.442 23.034L134.414 23.4634L132.007 23.3048ZM138.596 23.2024L138.575 23.6322L141.914 23.7972L141.935 23.3675L138.596 23.2024ZM143.413 23.8731L143.434 23.4433L147.141 23.6207L147.12 24.0505L143.413 23.8731ZM133.407 17.5742L131.288 19.5733L131.584 19.8863L133.702 17.8872L133.407 17.5742ZM134.494 16.5567L137.556 13.6577L137.852 13.9701L134.79 16.8691L134.494 16.5567ZM131.63 15.9912L131.468 16.3899L143.263 21.1817L143.425 20.783L131.63 15.9912ZM139.482 28.9892L144.203 20.4088L144.58 20.6163L139.859 29.1967L139.482 28.9892ZM135.062 8.07744L134.743 8.36626L141.077 15.3621L141.396 15.0733L135.062 8.07744ZM142.039 16.4158L142.358 16.1263L144.02 17.9535L143.701 18.2431L142.039 16.4158ZM136.077 18.8309L135.599 23.648L136.027 23.6905L136.505 18.8734L136.077 18.8309ZM146.269 10.4643L146.63 10.2297L148.306 12.8071L147.945 13.0416L146.269 10.4643ZM137.823 5.30953L137.434 5.49335L140.122 11.1833L140.511 10.9995L137.823 5.30953ZM144.528 11.8062L145.264 7.86516L145.687 7.94417L144.951 11.8852L144.528 11.8062ZM142.611 13.6996L140.126 18.1832L140.502 18.3918L142.988 13.9082L142.611 13.6996ZM143.611 2.35652L143.929 2.06747L154.363 13.5737L154.044 13.8627L143.611 2.35652ZM150.537 1.60016L147.088 4.8661L147.384 5.17854L150.833 1.91259L150.537 1.60016ZM150.068 8.35699L150.992 3.61353L151.414 3.69579L150.49 8.43924L150.068 8.35699ZM149.771 10.0296L149.35 12.2196L149.773 12.3009L150.194 10.1109L149.771 10.0296ZM152.288 10.5995L158.517 4.94001L158.806 5.25848L152.578 10.9179L152.288 10.5995ZM151.272 11.5024L146.351 15.98L146.641 16.2982L151.562 11.8207L151.272 11.5024ZM159.423 9.77484L161.312 7.6839L161.631 7.97233L159.742 10.0633L159.423 9.77484ZM157.93 11.4472L153.867 15.9401L154.186 16.2287L158.249 11.7358L157.93 11.4472ZM149.809 20.4809L152.941 16.9432L153.263 17.2284L150.131 20.7662L149.809 20.4809ZM160.188 15.1241L159.869 15.4133L164.963 21.0267L165.282 20.7375L160.188 15.1241ZM162.947 17.4004L162.973 16.9709L165.245 17.109L165.219 17.5385L162.947 17.4004ZM158.229 16.823L158.2 17.2523L160.504 17.4073L160.533 16.978L158.229 16.823ZM156.614 8.67842L159.602 7.18859L159.794 7.57367L156.806 9.0635L156.614 8.67842ZM146.431 27.5629L146.007 27.6358L147.332 35.3384L147.756 35.2654L146.431 27.5629ZM133.145 26.1L140.566 20.9517L140.812 21.3053L133.39 26.4536L133.145 26.1ZM146.94 1.51978L145.754 3.50059L146.123 3.72163L147.309 1.74082L146.94 1.51978ZM142.86 8.18554L145.056 4.71819L145.42 4.94843L143.224 8.41578L142.86 8.18554ZM137.598 11.9968L132.537 12.1788L132.552 12.6088L137.613 12.4268L137.598 11.9968ZM139.658 11.9357L142.201 11.8393L142.217 12.2693L139.675 12.3656L139.658 11.9357ZM162.94 19.8739L155.352 20.9093L155.41 21.3356L162.998 20.3002L162.94 19.8739ZM154.353 10.6998L163.414 10.5954L163.419 11.0257L154.358 11.1301L154.353 10.6998Z" fill="white"/>
<path d="M172.614 43.2867H171.917V44.5375H171V40.3677H172.704C173.699 40.3677 174.301 40.9573 174.301 41.8093V41.8212C174.301 42.7859 173.55 43.2867 172.615 43.2867H172.614ZM173.371 41.8277C173.371 41.4169 173.084 41.1969 172.626 41.1969H171.917V42.4716H172.644C173.103 42.4716 173.371 42.1973 173.371 41.8397V41.8277Z" fill="white"/>
<path d="M177.51 44.5375L177.129 43.6021H175.365L174.983 44.5375H174.048L175.836 40.3373H176.682L178.469 44.5364H177.51V44.5375ZM176.247 41.4396L175.693 42.7913H176.801L176.247 41.4396Z" fill="white"/>
<path d="M180.31 41.2131V44.5365H179.393V41.2131H178.124V40.3677H181.578V41.2131H180.309H180.31Z" fill="white"/>
<path d="M184.693 44.5375L184.312 43.6021H182.548L182.167 44.5375H181.231L183.02 40.3373H183.865L185.653 44.5364H184.693V44.5375ZM183.43 41.4396L182.877 42.7913H183.984L183.43 41.4396Z" fill="white"/>
<path d="M187.88 44.609C186.581 44.609 185.688 43.6974 185.688 42.465V42.4531C185.688 41.2672 186.612 40.2971 187.875 40.2971C188.625 40.2971 189.078 40.4998 189.512 40.8683L188.935 41.5653C188.613 41.2976 188.327 41.1426 187.844 41.1426C187.177 41.1426 186.647 41.7322 186.647 42.4411V42.4531C186.647 43.2161 187.171 43.7754 187.909 43.7754C188.243 43.7754 188.541 43.692 188.773 43.5251V42.9289H187.85V42.1365H189.661V43.9478C189.232 44.3109 188.642 44.609 187.88 44.609Z" fill="white"/>
<path d="M192.413 44.609C191.126 44.609 190.203 43.6497 190.203 42.465V42.4531C190.203 41.2672 191.138 40.2971 192.425 40.2971C193.712 40.2971 194.635 41.2564 194.635 42.4411V42.4531C194.635 43.6389 193.7 44.609 192.413 44.609ZM193.676 42.4531C193.676 41.7387 193.151 41.1426 192.413 41.1426C191.675 41.1426 191.162 41.7257 191.162 42.4411V42.4531C191.162 43.1674 191.687 43.7635 192.425 43.7635C193.163 43.7635 193.676 43.1793 193.676 42.465V42.4531Z" fill="white"/>
<path d="M198.221 44.5375L196.201 41.8873V44.5375H195.296V40.3677H196.142L198.095 42.9355V40.3677H199V44.5375H198.22H198.221Z" fill="white"/>
<path d="M179.06 48.2066H178.576C178.501 48.2066 178.479 48.1545 178.479 48.0949V48.0125C178.479 47.9605 178.516 47.9161 178.576 47.9161H179.059V46.9254C179.059 46.0463 179.64 45.6073 180.28 45.6073C180.83 45.6073 181.24 45.8902 181.367 46.0094C181.396 46.0322 181.396 46.0842 181.374 46.1211L181.293 46.2403C181.264 46.2848 181.218 46.2772 181.174 46.2479C181.039 46.1579 180.735 45.9054 180.281 45.9054C179.826 45.9054 179.38 46.2403 179.38 46.9254V47.9161H181.487C181.539 47.9161 181.583 47.9605 181.583 48.0125V50.7971C181.583 50.8568 181.531 50.8936 181.479 50.8936H181.353C181.301 50.8936 181.256 50.8492 181.256 50.7971V48.2066H179.38V50.7971C179.38 50.8492 179.335 50.8936 179.283 50.8936H179.157C179.105 50.8936 179.06 50.8492 179.06 50.7971V48.2066Z" fill="white"/>
<path d="M182.715 45.7797C182.715 45.7277 182.76 45.6832 182.812 45.6832H182.938C182.99 45.6832 183.035 45.7277 183.035 45.7797V48.1394C183.035 48.1394 183.393 47.8413 183.958 47.8413C184.799 47.8413 185.417 48.5188 185.417 49.3979C185.417 50.2769 184.815 50.9685 184.047 50.9685C183.474 50.9685 183.102 50.6335 183.012 50.5295L182.989 50.7972C182.982 50.8644 182.945 50.8937 182.885 50.8937H182.81C182.758 50.8937 182.714 50.8492 182.714 50.7972V45.7797H182.715ZM184.018 50.6715C184.643 50.6715 185.098 50.0981 185.098 49.4054C185.098 48.7128 184.607 48.1622 183.922 48.1622C183.385 48.1622 183.042 48.4754 183.042 48.4754V50.1425C183.058 50.1729 183.377 50.6715 184.018 50.6715Z" fill="white"/>
<path d="M187.585 47.8424C188.367 47.8424 188.933 48.4158 188.933 49.2049C188.933 49.3241 188.933 49.4954 188.821 49.4954H186.446C186.476 50.136 186.937 50.6715 187.607 50.6715C188.001 50.6715 188.307 50.5154 188.486 50.3961C188.553 50.3517 188.582 50.3441 188.62 50.3961L188.695 50.5002C188.718 50.5306 188.71 50.575 188.666 50.6194C188.517 50.7679 188.048 50.9695 187.586 50.9695C186.678 50.9695 186.12 50.2704 186.12 49.3989C186.12 48.5275 186.678 47.8424 187.586 47.8424H187.585ZM188.605 49.2266C188.605 48.6456 188.255 48.1394 187.585 48.1394C186.915 48.1394 186.49 48.6163 186.454 49.2266H188.605Z" fill="white"/>
<path d="M189.811 48.0137C189.811 47.9617 189.855 47.9172 189.907 47.9172H189.996C190.04 47.9172 190.078 47.9476 190.086 47.9996L190.115 48.3053C190.19 48.2012 190.487 47.8435 191.046 47.8435C191.285 47.8435 191.448 47.9107 191.508 47.9324C191.575 47.9552 191.612 48.0072 191.59 48.0668L191.531 48.2153C191.508 48.2673 191.464 48.2749 191.411 48.2521C191.375 48.237 191.225 48.1622 191.025 48.1622C190.444 48.1622 190.161 48.6315 190.139 48.676V50.7983C190.139 50.8579 190.11 50.8948 190.042 50.8948H189.894C189.842 50.8948 189.812 50.8503 189.812 50.7983V48.0137H189.811Z" fill="white"/>
<path d="M184.354 38.4251V38.3007H184.525C184.568 38.3007 184.603 38.2876 184.629 38.2614C184.655 38.2353 184.689 38.1796 184.731 38.0945L184.894 37.7378L184.374 36.5138H184.531L184.973 37.5742L185.441 36.5138H185.601L184.862 38.1207C184.822 38.208 184.787 38.2734 184.757 38.3171C184.726 38.3607 184.694 38.3891 184.659 38.4022C184.624 38.4174 184.581 38.4251 184.531 38.4251H184.354Z" fill="white"/>
<path d="M183.664 37.8753C183.577 37.8753 183.502 37.86 183.439 37.8295C183.378 37.7989 183.327 37.7618 183.288 37.7182C183.249 37.6745 183.218 37.6342 183.196 37.5971C183.177 37.56 183.165 37.5338 183.16 37.5185H183.154L183.128 37.8425H183V36H183.154L183.157 36.8738H183.164C183.168 36.8585 183.179 36.8324 183.196 36.7953C183.216 36.756 183.244 36.7156 183.282 36.6742C183.321 36.6305 183.371 36.5935 183.432 36.5629C183.495 36.5302 183.573 36.5138 183.664 36.5138C183.791 36.5138 183.898 36.5444 183.985 36.6055C184.075 36.6665 184.142 36.7484 184.188 36.8509C184.236 36.9535 184.26 37.068 184.26 37.1945C184.26 37.3233 184.236 37.4389 184.188 37.5415C184.142 37.644 184.075 37.7258 183.985 37.7869C183.898 37.8458 183.791 37.8753 183.664 37.8753ZM183.645 37.7345C183.754 37.7345 183.842 37.7095 183.91 37.6593C183.98 37.6069 184.03 37.5393 184.06 37.4564C184.093 37.3735 184.11 37.2862 184.11 37.1945C184.11 37.1029 184.092 37.0167 184.057 36.936C184.022 36.8531 183.969 36.7865 183.897 36.7364C183.825 36.684 183.734 36.6578 183.625 36.6578C183.492 36.6578 183.381 36.7058 183.291 36.8018C183.204 36.8956 183.16 37.0265 183.16 37.1945C183.16 37.3669 183.207 37.5 183.301 37.5938C183.397 37.6876 183.512 37.7345 183.645 37.7345Z" fill="white"/>
</svg>
