<svg width="21" height="21" viewBox="0 0 21 21" fill="none" xmlns="http://www.w3.org/2000/svg">
<g clip-path="url(#clip0_813_151)">
<path d="M13.125 6.125V17.4737L9.44125 15.89L8.75 15.5925L8.05875 15.89L4.375 17.4737V6.125H13.125ZM16.625 0.875H7.86625C6.90375 0.875 6.125 1.6625 6.125 2.625H14.875C15.8375 2.625 16.625 3.4125 16.625 4.375V15.75L18.375 16.625V2.625C18.375 1.6625 17.5875 0.875 16.625 0.875ZM13.125 4.375H4.375C3.4125 4.375 2.625 5.1625 2.625 6.125V20.125L8.75 17.5L14.875 20.125V6.125C14.875 5.1625 14.0875 4.375 13.125 4.375Z" fill="#022D40"/>
</g>
<defs>
<clipPath id="clip0_813_151">
<rect width="21" height="21" fill="white"/>
</clipPath>
</defs>
</svg>
