<svg width="199" height="37" viewBox="0 0 199 37" fill="none" xmlns="http://www.w3.org/2000/svg">
<path d="M0 2.13074H12.4621C22.5078 2.13074 29.4464 9.02376 29.4464 18.0186V18.1097C29.4464 27.1045 22.5078 34.0886 12.4621 34.0886H0V2.13074ZM12.4621 27.7417C18.2132 27.7417 22.0941 23.8607 22.0941 18.2007V18.1097C22.0941 12.4496 18.2132 8.47762 12.4621 8.47762H7.02957V27.7417H12.4621Z" fill="white"/>
<path d="M41.7264 21.49L29.4464 2.13074H37.6634L45.2888 14.961L53.0507 2.13074H61.0401L48.7601 21.3493V34.0886H41.7306V21.49H41.7264Z" fill="white"/>
<path d="M65.4217 2.13074H89.5266V8.3866H72.4057V14.87H87.4703V21.1259H72.4057V27.8369H89.7542V34.0927H65.4217V2.13074Z" fill="white"/>
<path d="M94.595 18.2007V18.1097C94.595 9.02377 101.67 1.58459 111.352 1.58459C117.103 1.58459 120.574 3.13615 123.905 5.96618L119.478 11.3077C117.012 9.25133 114.823 8.06801 111.124 8.06801C106.01 8.06801 101.947 12.5861 101.947 18.0186V18.1097C101.947 23.9518 105.965 28.2465 111.625 28.2465C114.182 28.2465 116.466 27.6093 118.245 26.3308V21.7672H111.17V15.6934H125.047V29.5705C121.762 32.355 117.239 34.6389 111.397 34.6389C101.447 34.6389 94.595 27.6548 94.595 18.2048V18.2007Z" fill="white"/>
<path d="M170.605 2.13074H177.088L192.061 21.8086V2.13074H199V34.0886H193.021L177.543 13.7736V34.0886H170.605V2.13074Z" fill="white"/>
<path fill-rule="evenodd" clip-rule="evenodd" d="M166.397 18.1097C166.397 28.1115 158.289 36.2195 148.287 36.2195C138.285 36.2195 130.177 28.1115 130.177 18.1097C130.177 8.10803 138.285 0 148.287 0C158.289 0 166.397 8.10803 166.397 18.1097ZM140.407 3.52869L140.816 3.39429L146.283 20.0242L145.874 20.1586L140.407 3.52869ZM156.74 14.8162L156.686 14.39L164.609 13.3971L164.659 13.8232L156.74 14.8162ZM137.881 31.7947L151.571 21.2476L151.834 21.5885L138.143 32.1355L137.881 31.7947ZM153.9 18.7142L149.355 35.3839L149.77 35.4971L154.315 18.8274L153.9 18.7142ZM147.849 22.0292L149.073 14.8383L149.497 14.9104L148.273 22.1013L147.849 22.0292ZM154.771 3.0022L152.116 8.19238L152.499 8.38831L155.154 3.19812L154.771 3.0022ZM151.615 15.3597L151.876 15.0183L157.655 19.4492L157.393 19.7908L151.615 15.3597ZM160.026 21.2639L159.764 21.6055L164.001 24.8517L164.262 24.5101L160.026 21.2639ZM158.836 31.6443L159.164 28.2509L159.592 28.2922L159.264 31.6857L158.836 31.6443ZM159.68 22.8826L159.303 26.7784L159.731 26.8198L160.108 22.9241L159.68 22.8826ZM157.256 26.5546L157.467 26.1797L161.872 28.6602L161.661 29.035L157.256 26.5546ZM153.537 23.9592L153.325 24.3337L156.059 25.8796L156.27 25.5051L153.537 23.9592ZM153.937 30.9044L154.29 30.6594L156.252 33.493L155.899 33.7379L153.937 30.9044ZM152.556 28.1487L152.202 28.3937L152.902 29.4038L153.256 29.1588L152.556 28.1487ZM152.205 31.5221L158.355 23.6937L158.693 23.9595L152.544 31.7878L152.205 31.5221ZM145.445 30.2985L142.042 34.188L142.366 34.4713L145.768 30.5818L145.445 30.2985ZM147.384 27.9618L149.812 25.1436L150.138 25.4243L147.71 28.2427L147.384 27.9618ZM137.418 25.1642L135.032 29.1362L135.401 29.3579L137.787 25.3859L137.418 25.1642ZM132.007 23.3048L132.036 22.8754L134.442 23.0341L134.414 23.4634L132.007 23.3048ZM138.596 23.2024L138.575 23.6322L141.914 23.7972L141.935 23.3674L138.596 23.2024ZM143.413 23.8732L143.434 23.4434L147.141 23.6207L147.12 24.0505L143.413 23.8732ZM133.407 17.5742L131.288 19.5734L131.584 19.8862L133.702 17.8872L133.407 17.5742ZM134.494 16.5566L137.556 13.6577L137.852 13.9701L134.79 16.8691L134.494 16.5566ZM131.63 15.9912L131.468 16.3899L143.263 21.1816L143.425 20.783L131.63 15.9912ZM139.482 28.9893L144.203 20.4088L144.58 20.6163L139.859 29.1967L139.482 28.9893ZM135.062 8.07739L134.743 8.36621L141.077 15.3621L141.396 15.0732L135.062 8.07739ZM142.039 16.4158L142.358 16.1263L144.02 17.9535L143.701 18.243L142.039 16.4158ZM136.077 18.8309L135.599 23.6481L136.027 23.6906L136.505 18.8734L136.077 18.8309ZM146.269 10.4642L146.63 10.2297L148.306 12.807L147.945 13.0416L146.269 10.4642ZM137.823 5.30957L137.434 5.49341L140.122 11.1833L140.511 10.9995L137.823 5.30957ZM144.528 11.8063L145.264 7.86511L145.687 7.94421L144.951 11.8853L144.528 11.8063ZM142.611 13.6996L140.126 18.1831L140.502 18.3917L142.988 13.9082L142.611 13.6996ZM143.611 2.35657L143.929 2.0675L154.363 13.5737L154.044 13.8628L143.611 2.35657ZM150.537 1.6001L147.088 4.86609L147.384 5.17859L150.833 1.9126L150.537 1.6001ZM150.068 8.35693L150.992 3.61353L151.414 3.6958L150.49 8.43921L150.068 8.35693ZM149.771 10.0297L149.35 12.2196L149.773 12.3009L150.194 10.1108L149.771 10.0297ZM152.288 10.5995L158.517 4.94006L158.806 5.25842L152.578 10.918L152.288 10.5995ZM151.272 11.5024L146.351 15.98L146.641 16.2982L151.562 11.8207L151.272 11.5024ZM159.423 9.7749L161.312 7.68396L161.631 7.97229L159.742 10.0632L159.423 9.7749ZM157.93 11.4471L153.867 15.9401L154.186 16.2286L158.249 11.7357L157.93 11.4471ZM149.809 20.481L152.941 16.9432L153.263 17.2284L150.131 20.7661L149.809 20.481ZM160.188 15.1241L159.869 15.4133L164.963 21.0267L165.282 20.7375L160.188 15.1241ZM162.947 17.4004L162.973 16.9709L165.245 17.109L165.219 17.5386L162.947 17.4004ZM158.229 16.823L158.2 17.2523L160.504 17.4073L160.533 16.978L158.229 16.823ZM156.614 8.67847L159.602 7.1886L159.794 7.57373L156.806 9.06348L156.614 8.67847ZM146.431 27.5629L146.007 27.6357L147.332 35.3384L147.756 35.2654L146.431 27.5629ZM133.145 26.1L140.566 20.9518L140.812 21.3053L133.39 26.4536L133.145 26.1ZM146.94 1.51978L145.754 3.50061L146.123 3.72168L147.309 1.74084L146.94 1.51978ZM142.86 8.18555L145.056 4.71814L145.42 4.94849L143.224 8.41577L142.86 8.18555ZM137.598 11.9968L132.537 12.1788L132.552 12.6089L137.613 12.4268L137.598 11.9968ZM139.658 11.9357L142.201 11.8394L142.217 12.2693L139.675 12.3656L139.658 11.9357ZM162.94 19.8739L155.352 20.9093L155.41 21.3356L162.998 20.3002L162.94 19.8739ZM154.353 10.6998L163.414 10.5955L163.419 11.0258L154.358 11.1301L154.353 10.6998Z" fill="white"/>
</svg>
